<svg xmlns="http://www.w3.org/2000/svg" width="193.088" height="53" viewBox="0 0 193.088 53" role="img"><title>Benchmark</title><rect x="3" y="6" width="187.088" height="44" rx="17" fill="#C9DFE7"/><rect x="3" y="2" width="187.088" height="44" rx="17" fill="#F2EAF4" stroke="#31566A" stroke-width="1.6"/><g transform="translate(13 7) scale(0.7)" stroke="#31566A" stroke-width="2" stroke-linejoin="round" stroke-linecap="round" fill="none"><rect x="3" y="5" width="39" height="36" rx="7" fill="#EAF5F8"/><path d="M12 32v-9M22 32V14M32 32V20" stroke-width="5" stroke="#5BA6C2"/><circle cx="35" cy="8" r="5" fill="#E98B79" stroke="white"/></g><path d="M75 47V621Q75 641 90.0 655.5Q105 670 124 670H294Q366 670 417.5 645.5Q469 621 495.0 580.5Q521 540 521 493Q521 418 475 368Q526 344 551.0 304.5Q576 265 576 207Q576 103 465.0 47.5Q354 -8 133 -8Q101 -8 88.0 5.0Q75 18 75 47ZM422 492Q422 527 388.5 550.5Q355 574 294 574H175V399H328Q369 399 395.5 427.5Q422 456 422 492ZM477 207Q477 250 438.0 276.5Q399 303 328 303H175V87Q308 89 392.5 119.0Q477 149 477 207Z" transform="translate(52.000 32) scale(0.024 -0.024)" fill="#31566A"/><path d="M38 245Q38 308 66.5 365.5Q95 423 146.5 458.0Q198 493 264 493Q325 493 368.5 468.5Q412 444 434.0 410.0Q456 376 456 349Q456 336 448.0 324.0Q440 312 425 303L157 149Q171 118 206.5 101.0Q242 84 286 84Q344 84 385 127Q401 143 418 143Q438 143 451.5 130.0Q465 117 465 98Q465 82 453 68Q425 37 378.5 15.5Q332 -6 286 -6Q215 -6 158.5 24.5Q102 55 70.0 111.5Q38 168 38 245ZM271 403Q214 403 175.5 364.0Q137 325 131 268Q129 253 129 232L357 361Q345 382 323.0 392.5Q301 403 271 403Z" transform="translate(66.664 32) scale(0.024 -0.024)" fill="#31566A"/><path d="M70 40V446Q70 466 85.0 480.0Q100 494 120 494Q139 494 152.5 480.0Q166 466 166 446V370Q194 430 237.0 461.5Q280 493 331 493Q387 493 420.0 467.0Q453 441 468.0 381.5Q483 322 483 217L482 42Q482 23 469.0 8.5Q456 -6 436 -6Q417 -6 402.5 8.5Q388 23 388 41V207Q388 285 381.0 327.0Q374 369 360.0 384.5Q346 400 322 400Q292 400 262.0 374.5Q232 349 206 302Q183 261 174.0 222.0Q165 183 165 128V44Q165 22 152.5 8.0Q140 -6 118 -6Q99 -6 84.5 8.0Q70 22 70 40Z" transform="translate(78.448 32) scale(0.024 -0.024)" fill="#31566A"/><path d="M38 213Q38 281 70.0 346.0Q102 411 154.0 452.0Q206 493 264 493Q317 493 349.5 476.5Q382 460 413 424Q428 408 428 389Q428 370 414.0 356.5Q400 343 380 343Q367 343 359.5 347.0Q352 351 342 363Q325 382 308.5 392.0Q292 402 265 402Q234 402 202.5 375.0Q171 348 151.5 304.5Q132 261 132 215Q132 175 149.5 145.5Q167 116 195.0 100.5Q223 85 254 85Q294 85 319.5 100.0Q345 115 365 141Q384 166 408 166Q427 166 441.0 152.5Q455 139 455 122Q455 102 444 88Q415 49 365.0 21.5Q315 -6 256 -6Q196 -6 146.0 23.0Q96 52 67.0 102.5Q38 153 38 213Z" transform="translate(91.480 32) scale(0.024 -0.024)" fill="#31566A"/><path d="M70 41V617Q70 637 84.5 651.5Q99 666 120 666Q140 666 153.0 651.5Q166 637 166 617V402Q199 444 241.0 469.5Q283 495 325 495Q404 495 436.0 415.5Q468 336 468 164Q468 67 465 39Q464 20 450.5 7.0Q437 -6 418 -6Q397 -6 384.0 7.5Q371 21 371 41Q371 61 372 74L373 157Q373 302 357.5 351.0Q342 400 319 400Q290 400 260.0 373.5Q230 347 208.5 314.5Q187 282 178 263Q166 236 166 192V43Q166 20 152.0 6.5Q138 -7 118 -7Q99 -7 84.5 7.5Q70 22 70 41Z" transform="translate(102.760 32) scale(0.024 -0.024)" fill="#31566A"/><path d="M70 41V445Q70 464 84.5 478.5Q99 493 118 493Q138 493 152.0 478.5Q166 464 166 445V375Q228 493 331 493Q372 493 402.5 469.0Q433 445 446 397Q510 493 602 493Q664 493 700.0 445.5Q736 398 736 303V41Q736 22 721.5 8.0Q707 -6 688 -6Q668 -6 654.0 8.0Q640 22 640 41V309Q640 355 627.0 378.0Q614 401 586 401Q557 401 528.0 378.0Q499 355 480.5 315.0Q462 275 462 227V41Q462 21 448.0 7.5Q434 -6 414 -6Q395 -6 380.5 8.0Q366 22 366 41V309Q366 357 354.5 379.0Q343 401 317 401Q285 401 254.0 375.5Q223 350 200 314Q182 284 173.5 254.0Q165 224 165 188L166 41Q166 22 152.0 8.0Q138 -6 118 -6Q99 -6 84.5 8.0Q70 22 70 41Z" transform="translate(115.432 32) scale(0.024 -0.024)" fill="#31566A"/><path d="M345 24V38Q304 -6 231 -6Q176 -6 132.0 21.0Q88 48 63.0 97.5Q38 147 38 210Q38 280 68.0 345.5Q98 411 152.5 452.0Q207 493 278 493Q324 493 361.0 480.5Q398 468 438 450V34Q438 14 424.0 -1.0Q410 -16 390 -16Q370 -16 357.5 -5.0Q345 6 345 24ZM340 128 343 389Q314 401 280 401Q237 401 204.0 374.5Q171 348 153.0 304.5Q135 261 135 212Q135 151 162.0 119.0Q189 87 238 87Q267 87 294.5 99.0Q322 111 340 128Z" transform="translate(134.536 32) scale(0.024 -0.024)" fill="#31566A"/><path d="M70 40V445Q70 465 84.5 479.0Q99 493 119 493Q139 493 153.5 479.0Q168 465 168 445V415Q217 495 302 495Q353 495 375.5 467.0Q398 439 398 400V370Q398 350 384.5 336.5Q371 323 351 323Q327 323 315.5 337.0Q304 351 304 371V384Q304 400 282 400Q264 400 240.5 382.0Q217 364 202 344Q181 318 174.5 292.0Q168 266 168 230L167 40Q167 22 152.0 8.0Q137 -6 119 -6Q100 -6 85.0 8.0Q70 22 70 40Z" transform="translate(146.728 32) scale(0.024 -0.024)" fill="#31566A"/><path d="M72 42 70 619Q70 638 84.5 652.0Q99 666 119 666Q140 666 153.5 651.5Q167 637 167 617L168 293Q210 329 266.0 386.0Q322 443 361 490Q377 510 400 510Q420 510 433.5 497.0Q447 484 447 464Q447 447 437 435Q411 400 371.5 358.0Q332 316 299 285L464 78Q477 63 477 47Q477 26 463.5 11.5Q450 -3 429 -3Q405 -3 391 14Q313 119 243 206L227 227Q206 211 169 187V42Q169 23 155.0 8.5Q141 -6 120 -6Q102 -6 87.0 8.5Q72 23 72 42Z" transform="translate(156.400 32) scale(0.024 -0.024)" fill="#31566A"/></svg>
